<svg width="21" height="21" viewBox="0 0 21 21" fill="none" xmlns="http://www.w3.org/2000/svg">
<path d="M10.5 5.8125C9.5729 5.8125 8.66662 6.08742 7.89576 6.60249C7.12491 7.11756 6.5241 7.84964 6.16931 8.70617C5.81453 9.5627 5.7217 10.5052 5.90257 11.4145C6.08344 12.3238 6.52988 13.159 7.18544 13.8146C7.841 14.4701 8.67623 14.9166 9.58551 15.0974C10.4948 15.2783 11.4373 15.1855 12.2938 14.8307C13.1504 14.4759 13.8824 13.8751 14.3975 13.1042C14.9126 12.3334 15.1875 11.4271 15.1875 10.5C15.1875 9.2568 14.6936 8.06451 13.8146 7.18544C12.9355 6.30636 11.7432 5.8125 10.5 5.8125ZM10.5 13.625C9.88193 13.625 9.27775 13.4417 8.76384 13.0983C8.24994 12.755 7.8494 12.2669 7.61288 11.6959C7.37635 11.1249 7.31447 10.4965 7.43505 9.89034C7.55562 9.28415 7.85325 8.72733 8.29029 8.29029C8.72733 7.85325 9.28415 7.55562 9.89034 7.43505C10.4965 7.31447 11.1249 7.37635 11.6959 7.61288C12.2669 7.8494 12.755 8.24994 13.0983 8.76384C13.4417 9.27775 13.625 9.88193 13.625 10.5C13.6224 11.328 13.2924 12.1214 12.7069 12.7069C12.1214 13.2924 11.328 13.6224 10.5 13.625ZM14.7969 0.734375H6.20312C4.75272 0.734375 3.36172 1.31055 2.33613 2.33613C1.31055 3.36172 0.734375 4.75272 0.734375 6.20312V14.7969C0.734375 16.2473 1.31055 17.6383 2.33613 18.6639C3.36172 19.6895 4.75272 20.2656 6.20312 20.2656H14.7969C16.2473 20.2656 17.6383 19.6895 18.6639 18.6639C19.6895 17.6383 20.2656 16.2473 20.2656 14.7969V6.20312C20.2656 4.75272 19.6895 3.36172 18.6639 2.33613C17.6383 1.31055 16.2473 0.734375 14.7969 0.734375ZM18.7031 14.7969C18.7031 15.3099 18.6021 15.8178 18.4058 16.2917C18.2095 16.7657 17.9217 17.1963 17.559 17.559C17.1963 17.9217 16.7657 18.2095 16.2917 18.4058C15.8178 18.6021 15.3099 18.7031 14.7969 18.7031H6.20312C5.69015 18.7031 5.1822 18.6021 4.70827 18.4058C4.23434 18.2095 3.80372 17.9217 3.44099 17.559C3.07826 17.1963 2.79053 16.7657 2.59422 16.2917C2.39791 15.8178 2.29688 15.3099 2.29688 14.7969V6.20312C2.29688 5.16712 2.70843 4.17355 3.44099 3.44099C4.17355 2.70843 5.16712 2.29688 6.20312 2.29688H14.7969C15.3099 2.29688 15.8178 2.39791 16.2917 2.59422C16.7657 2.79053 17.1963 3.07826 17.559 3.44099C17.9217 3.80372 18.2095 4.23434 18.4058 4.70827C18.6021 5.1822 18.7031 5.69015 18.7031 6.20312V14.7969ZM16.75 5.42188C16.75 5.65365 16.6813 5.88022 16.5525 6.07293C16.4237 6.26565 16.2407 6.41585 16.0266 6.50455C15.8124 6.59324 15.5768 6.61645 15.3495 6.57123C15.1222 6.52602 14.9134 6.41441 14.7495 6.25052C14.5856 6.08663 14.474 5.87782 14.4288 5.6505C14.3835 5.42318 14.4068 5.18755 14.4955 4.97342C14.5842 4.75929 14.7344 4.57626 14.9271 4.4475C15.1198 4.31873 15.3463 4.25 15.5781 4.25C15.8889 4.25 16.187 4.37346 16.4068 4.59323C16.6265 4.813 16.75 5.11107 16.75 5.42188Z" fill="#C9C9C9"/>
</svg>
