<svg width="23" height="17" viewBox="0 0 23 17" fill="none" xmlns="http://www.w3.org/2000/svg">
<path d="M19.0729 1.55209C17.6875 0.906257 16.1875 0.437507 14.625 0.166674C14.6113 0.166236 14.5977 0.168807 14.5851 0.174206C14.5725 0.179605 14.5612 0.187702 14.5521 0.197924C14.3646 0.541674 14.1458 0.98959 14 1.33334C12.3427 1.08334 10.6573 1.08334 8.99998 1.33334C8.85415 0.979174 8.6354 0.541674 8.43748 0.197924C8.42706 0.177091 8.39581 0.166674 8.36456 0.166674C6.80206 0.437507 5.31248 0.906257 3.91665 1.55209C3.90623 1.55209 3.89581 1.56251 3.8854 1.57292C1.05206 5.81251 0.270813 9.93751 0.65623 14.0208C0.65623 14.0417 0.666646 14.0625 0.68748 14.0729C2.56248 15.4479 4.36456 16.2813 6.14581 16.8333C6.17706 16.8438 6.20831 16.8333 6.21873 16.8125C6.6354 16.2396 7.0104 15.6354 7.33331 15C7.35415 14.9583 7.33331 14.9167 7.29165 14.9063C6.6979 14.6771 6.1354 14.4063 5.58331 14.0938C5.54165 14.0729 5.54165 14.0104 5.5729 13.9792C5.68748 13.8958 5.80206 13.8021 5.91665 13.7188C5.93748 13.6979 5.96873 13.6979 5.98956 13.7083C9.5729 15.3438 13.4375 15.3438 16.9791 13.7083C17 13.6979 17.0312 13.6979 17.0521 13.7188C17.1666 13.8125 17.2812 13.8958 17.3958 13.9896C17.4375 14.0208 17.4375 14.0833 17.3854 14.1042C16.8437 14.4271 16.2708 14.6875 15.6771 14.9167C15.6354 14.9271 15.625 14.9792 15.6354 15.0104C15.9687 15.6458 16.3437 16.25 16.75 16.8229C16.7812 16.8333 16.8125 16.8438 16.8437 16.8333C18.6354 16.2813 20.4375 15.4479 22.3125 14.0729C22.3333 14.0625 22.3437 14.0417 22.3437 14.0208C22.8021 9.30209 21.5833 5.20834 19.1146 1.57292C19.1041 1.56251 19.0937 1.55209 19.0729 1.55209ZM7.87498 11.5313C6.80206 11.5313 5.90623 10.5417 5.90623 9.32292C5.90623 8.10417 6.78123 7.11459 7.87498 7.11459C8.97915 7.11459 9.85415 8.11459 9.84373 9.32292C9.84373 10.5417 8.96873 11.5313 7.87498 11.5313ZM15.1354 11.5313C14.0625 11.5313 13.1666 10.5417 13.1666 9.32292C13.1666 8.10417 14.0416 7.11459 15.1354 7.11459C16.2396 7.11459 17.1146 8.11459 17.1041 9.32292C17.1041 10.5417 16.2396 11.5313 15.1354 11.5313Z" fill="#C9C9C9"/>
</svg>
